<?xml version="1.0" encoding="UTF-8" standalone="no"?>
<!-- Created with Inkscape (http://www.inkscape.org/) -->

<svg
   width="45.093006mm"
   height="49.279114mm"
   viewBox="0 0 45.093006 49.279114"
   version="1.1"
   id="svg5"
   xml:space="preserve"
   inkscape:version="1.2.2 (732a01da63, 2022-12-09)"
   sodipodi:docname="Logo.svg"
   inkscape:export-filename="Logo.png"
   inkscape:export-xdpi="224.37567"
   inkscape:export-ydpi="224.37567"
   xmlns:inkscape="http://www.inkscape.org/namespaces/inkscape"
   xmlns:sodipodi="http://sodipodi.sourceforge.net/DTD/sodipodi-0.dtd"
   xmlns:xlink="http://www.w3.org/1999/xlink"
   xmlns="http://www.w3.org/2000/svg"
   xmlns:svg="http://www.w3.org/2000/svg"><sodipodi:namedview
     id="namedview7"
     pagecolor="#505050"
     bordercolor="#eeeeee"
     borderopacity="1"
     inkscape:showpageshadow="0"
     inkscape:pageopacity="0"
     inkscape:pagecheckerboard="0"
     inkscape:deskcolor="#505050"
     inkscape:document-units="mm"
     showgrid="false"
     inkscape:zoom="2.1089996"
     inkscape:cx="11.616882"
     inkscape:cy="79.658621"
     inkscape:window-width="1920"
     inkscape:window-height="1017"
     inkscape:window-x="-8"
     inkscape:window-y="1072"
     inkscape:window-maximized="1"
     inkscape:current-layer="layer2" /><defs
     id="defs2"><linearGradient
       inkscape:collect="always"
       id="linearGradient926"><stop
         style="stop-color:#00fdff;stop-opacity:1;"
         offset="0"
         id="stop922" /><stop
         style="stop-color:#ffffff;stop-opacity:1;"
         offset="0.83624452"
         id="stop924" /></linearGradient><radialGradient
       inkscape:collect="always"
       xlink:href="#linearGradient926"
       id="radialGradient928"
       cx="22.496258"
       cy="24.646738"
       fx="22.496258"
       fy="24.646738"
       r="29.739971"
       gradientUnits="userSpaceOnUse"
       spreadMethod="pad" /><filter
       inkscape:collect="always"
       style="color-interpolation-filters:sRGB"
       id="filter936"
       x="-0.082069745"
       y="-0.074839953"
       width="1.1641395"
       height="1.1496799"><feGaussianBlur
         inkscape:collect="always"
         stdDeviation="1.5310547"
         id="feGaussianBlur938" /></filter></defs><g
     inkscape:groupmode="layer"
     id="layer2"
     inkscape:label="Layer 2"><rect
       style="fill:url(#radialGradient928);fill-opacity:1;stroke:none;stroke-width:1.52;stroke-linejoin:round;stroke-miterlimit:2.8;stroke-dasharray:none;stroke-opacity:1;opacity:1"
       id="rect288"
       width="57.959942"
       height="57.959942"
       x="-6.4837136"
       y="-4.3332319"
       ry="13.423623" /><path
       style="opacity:1;mix-blend-mode:normal;fill:#000000;fill-opacity:1;stroke-width:0.264583;filter:url(#filter936)"
       d="M 7.3092365,48.94571 C 3.0645333,47.990781 -0.27403535,43.239195 0.14521137,38.74958 0.46200468,35.357114 2.7948774,32.002898 5.7452558,30.697804 L 6.9360822,30.171045 V 24.639557 19.108069 L 5.7452558,18.58131 C 3.9478713,17.786241 1.8379658,15.643701 0.95620464,13.718185 0.30533015,12.296859 0.20223492,11.746394 0.20188855,9.6905982 0.20152778,7.5492701 0.28704545,7.1332274 1.0506601,5.5613322 3.6156438,0.28133229 9.96291,-1.4973736 14.93894,1.6693947 c 3.067647,1.9522646 4.844066,6.0680601 4.177846,9.6796743 -0.586449,3.179172 -3.028941,6.331945 -5.693909,7.349706 l -1.195128,0.456423 v 5.484359 5.484358 l 1.256771,0.477964 c 1.681011,0.639305 4.312435,3.270729 4.951741,4.951741 l 0.477963,1.256771 h 3.632275 3.632276 L 26.65795,35.55362 c 0.599837,-1.573231 2.952991,-3.967305 4.7483,-4.830874 1.935914,-0.931198 5.26978,-1.051451 7.355128,-0.265303 2.139842,0.806694 4.38349,2.934433 5.364856,5.087702 0.644237,1.413561 0.757391,1.998441 0.756658,3.911079 -0.0011,2.787733 -0.647859,4.574861 -2.365867,6.537058 C 37.926806,51.235933 29.267742,49.7625 26.604242,43.28555 l -0.485868,-1.181508 h -3.571875 -3.571875 l -0.485869,1.181508 c -1.786361,4.343974 -6.475975,6.718313 -11.1795185,5.66016 z m 5.3365495,-4.793131 c 3.730668,-2.522813 3.161077,-8.101487 -1.004851,-9.841694 -2.1865356,-0.913368 -5.0437717,-0.02225 -6.4541385,2.0129 -1.0167006,1.467099 -1.2136517,4.121981 -0.4205462,5.668926 1.0432021,2.034757 2.6317388,2.993824 4.9842011,3.00917 1.4042006,0.0092 1.7956736,-0.105672 2.8953346,-0.849302 z m 25.190942,0.356478 c 2.125366,-1.089951 3.063349,-2.799683 2.920723,-5.323822 -0.128572,-2.2754 -1.004444,-3.647035 -2.94698,-4.615042 -6.115966,-3.047714 -11.03742,5.745313 -5.363258,9.582386 1.080069,0.730382 1.507776,0.859896 2.839728,0.859896 1.021064,0 1.910607,-0.175628 2.549787,-0.503418 z M 11.640935,14.968229 C 15.806863,13.228021 16.376454,7.6493488 12.645786,5.1265355 11.565129,4.3957558 11.138344,4.2666396 9.8034581,4.2666396 c -2.3452411,0 -3.9965325,0.9899349 -5.0372078,3.0197625 -0.7931055,1.5469453 -0.5961544,4.2018289 0.4205462,5.6689279 1.4103668,2.03516 4.2676029,2.926267 6.4541385,2.012899 z m 22.814532,0.06285 c -0.507828,-0.161721 -1.407853,-0.778568 -2.000057,-1.370771 -3.331771,-3.33177 -1.31677,-9.0070287 3.316949,-9.3422018 2.049502,-0.1482477 3.187608,0.2738644 4.459891,1.6541295 2.169681,2.3538266 2.134976,5.4718473 -0.08563,7.6924463 -1.565515,1.565517 -3.56126,2.044677 -5.691158,1.366397 z"
       id="path314"
       transform="matrix(0.74486623,0,0,0.74486623,5.7395551,6.2882154)" /><path
       style="fill:#000000;fill-opacity:0.698953;stroke-width:0.197079"
       d="M 11.183959,42.746222 C 8.0222225,42.034927 5.5354354,38.495632 5.8477182,35.151469 6.0836868,32.624536 7.8213649,30.126093 10.019002,29.153973 l 0.887007,-0.392365 V 24.641389 20.521171 L 10.019002,20.128806 C 8.6801911,19.536586 7.1085938,17.94068 6.4517997,16.506428 5.9669852,15.44773 5.8901931,15.037708 5.8899351,13.506415 5.8896664,11.911412 5.9533656,11.601516 6.5221563,10.430664 8.4327261,6.4977704 13.16059,5.1728724 16.867067,7.5316912 c 2.284987,1.4541759 3.608181,4.5198928 3.111936,7.2100628 -0.436826,2.368058 -2.256155,4.716452 -4.2412,5.474547 l -0.890211,0.339975 v 4.085113 4.085113 l 0.936127,0.35602 c 1.252128,0.476196 3.212187,2.436255 3.688384,3.688384 l 0.356019,0.936127 h 2.705559 2.70556 l 0.356921,-0.936127 c 0.446798,-1.171846 2.199583,-2.955111 3.536848,-3.598355 1.441997,-0.693618 3.925281,-0.78319 5.478587,-0.197615 1.593896,0.600879 3.265113,2.18576 3.9961,3.789658 0.47987,1.052913 0.564155,1.488571 0.563609,2.91323 -8.2e-4,2.076488 -0.482569,3.40766 -1.762255,4.869234 -3.419099,3.905074 -9.868943,2.807563 -11.852894,-2.016898 L 25.19425,37.650094 h -2.660569 -2.660569 l -0.361908,0.880066 c -1.3306,3.235679 -4.823735,5.004244 -8.327245,4.216062 z m 3.975015,-3.570242 c 2.778849,-1.879158 2.35458,-6.034524 -0.74848,-7.330745 -1.628676,-0.680337 -3.756935,-0.01657 -4.8074693,1.499341 -0.757306,1.092793 -0.9040082,3.070325 -0.3132507,4.222592 0.777046,1.515621 1.960293,2.229998 3.712563,2.241429 1.045942,0.0069 1.337537,-0.07871 2.156637,-0.632617 z m 18.763882,0.265529 c 1.583113,-0.811868 2.281785,-2.085389 2.175548,-3.965535 -0.09577,-1.694869 -0.748177,-2.716554 -2.195106,-3.437589 -4.555576,-2.27014 -8.221401,4.279489 -3.99491,7.137595 0.804507,0.544037 1.123092,0.640508 2.115218,0.640508 0.760556,0 1.423146,-0.130819 1.89925,-0.374979 z M 14.410494,17.437544 c 3.10306,-1.296222 3.527329,-5.451587 0.74848,-7.330745 -0.804945,-0.5443335 -1.122843,-0.6405078 -2.117154,-0.6405078 -1.746891,0 -2.976882,0.7373688 -3.752046,2.2493188 -0.5907575,1.152268 -0.4440553,3.129801 0.3132507,4.222593 1.0505343,1.515922 3.1787933,2.179678 4.8074693,1.499341 z m 16.993775,0.04682 C 31.026005,17.363898 30.355607,16.90443 29.914494,16.463318 27.43277,13.981595 28.933676,9.754286 32.385177,9.5046269 c 1.526605,-0.1104247 2.374342,0.2039924 3.322022,1.2321051 1.616123,1.753286 1.590272,4.075794 -0.06378,5.729844 -1.1661,1.1661 -2.652663,1.52301 -4.239152,1.017783 z"
       id="path934" /></g></svg>
